<svg xmlns="http://www.w3.org/2000/svg" xmlns:xlink="http://www.w3.org/1999/xlink" width="320" zoomAndPan="magnify" viewBox="0 0 252 143.999998" height="120" preserveAspectRatio="xMidYMid meet" version="1.0"><defs><g/><clipPath id="331a5c3db0"><path d="M 104.519531 44.117188 L 150.664062 44.117188 L 150.664062 82.21875 L 104.519531 82.21875 Z M 104.519531 44.117188 " clip-rule="nonzero"/></clipPath><clipPath id="994c22249d"><path d="M 142.3125 41.042969 L 151.34375 41.042969 L 151.34375 59 L 142.3125 59 Z M 142.3125 41.042969 " clip-rule="nonzero"/></clipPath><clipPath id="3f1b2e80df"><path d="M 164 64.261719 L 170 64.261719 L 170 69 L 164 69 Z M 164 64.261719 " clip-rule="nonzero"/></clipPath><clipPath id="dbade8d425"><path d="M 159 73 L 173 73 L 173 89.761719 L 159 89.761719 Z M 159 73 " clip-rule="nonzero"/></clipPath><clipPath id="59075e3755"><path d="M 159 72 L 173 72 L 173 89.761719 L 159 89.761719 Z M 159 72 " clip-rule="nonzero"/></clipPath><clipPath id="f316291a58"><path d="M 163 64.261719 L 170 64.261719 L 170 70 L 163 70 Z M 163 64.261719 " clip-rule="nonzero"/></clipPath></defs><path fill="#ee233b" d="M 116.644531 34.285156 C 115.628906 34.667969 114.679688 35.136719 113.78125 35.683594 C 112.195312 36.253906 110.753906 37.015625 109.414062 37.882812 C 107.226562 38.265625 105.167969 40.617188 104.171875 42.34375 C 104.046875 42.558594 103.992188 42.796875 103.890625 43.011719 C 97.609375 51.324219 97.402344 63.820312 105.082031 72.742188 C 111.121094 79.769531 120.730469 83.035156 129.769531 80.71875 C 139.34375 78.265625 145.070312 70.117188 148.117188 61.101562 C 154.761719 41.414062 134.566406 27.554688 116.644531 34.285156 " fill-opacity="1" fill-rule="nonzero"/><path fill="#1f59b0" d="M 148.359375 47.121094 C 148.351562 47.085938 148.398438 47.074219 148.386719 47.035156 C 148.382812 46.996094 148.359375 46.960938 148.347656 46.921875 C 148.222656 43.589844 147.328125 41.0625 144.707031 38.902344 C 143.640625 37.511719 142.269531 36.289062 140.96875 35.226562 C 139.726562 34.214844 136.777344 31.445312 134.859375 32.292969 C 129.871094 29.949219 124.183594 29.230469 119.15625 31.175781 C 116.898438 32.050781 113.007812 34.34375 110.332031 37.128906 C 104.203125 42.332031 104.261719 53.882812 112.480469 57.1875 C 116.738281 58.902344 120.722656 57.167969 123.84375 54.148438 C 127 51.074219 128.457031 47.480469 132.953125 45.929688 C 137.976562 44.207031 142.488281 45.785156 146.382812 49.050781 C 147.152344 49.703125 148.386719 49.300781 148.40625 48.210938 C 148.417969 47.820312 148.367188 47.492188 148.359375 47.121094 " fill-opacity="1" fill-rule="nonzero"/><path stroke-linecap="round" transform="matrix(0.0439476, 0, 0, -0.043943, 99.245005, 82.22022)" fill="none" stroke-linejoin="round" d="M 571.728629 615.97708 C 572.261935 615.97708 572.261935 616.866016 571.728629 616.866016 Z M 571.728629 615.97708 " stroke="#dbe812" stroke-width="1.2" stroke-opacity="1" stroke-miterlimit="4"/><g clip-path="url(#331a5c3db0)"><path fill="#fff020" d="M 148.179688 50.300781 C 147.726562 49.21875 146.9375 48.277344 145.53125 47.589844 C 144.972656 47.320312 144.394531 47.304688 143.875 47.445312 C 140.195312 43.289062 133.917969 43.246094 129.085938 47.53125 C 126.671875 49.671875 124.972656 52.042969 124.101562 54.816406 C 122.976562 55.984375 122.644531 57.445312 122.886719 59.402344 C 123.027344 60.609375 123.449219 61.730469 123.867188 62.855469 C 124.292969 65.105469 124.722656 66.980469 123.605469 69.828125 C 122.011719 73.871094 118.550781 74.578125 114.796875 75.4375 C 114.6875 75.441406 114.582031 75.445312 114.472656 75.453125 C 113.417969 74.863281 112.367188 74.265625 111.25 73.699219 C 110.515625 73.320312 109.621094 73.894531 109.597656 74.640625 C 109.234375 74.394531 108.851562 74.191406 108.5 73.917969 C 108.296875 73.761719 108.066406 73.800781 107.902344 73.917969 C 107.1875 73.605469 106.484375 73.308594 105.238281 72.78125 C 104.75 72.574219 104.523438 73.316406 104.898438 73.585938 C 105.726562 74.167969 106.589844 74.597656 107.4375 75.113281 C 107.449219 75.148438 107.414062 75.183594 107.433594 75.210938 C 108.597656 77.253906 110.25 78.527344 112.324219 79.613281 C 114.050781 80.527344 116.289062 81.804688 118.25 81.101562 C 118.375 81.058594 118.386719 80.949219 118.46875 80.878906 C 119.320312 81.167969 120.167969 81.46875 121.015625 81.632812 C 124.101562 82.234375 129.929688 83.105469 131.839844 79.992188 C 131.894531 79.90625 131.867188 79.800781 131.882812 79.703125 C 135.398438 78.871094 138.710938 77.234375 141.5 74.394531 C 141.789062 74.105469 141.96875 73.726562 142.230469 73.410156 C 142.550781 73.296875 142.867188 73.121094 143.148438 72.867188 C 145.859375 70.464844 147.175781 67.980469 147.636719 65.566406 C 150.28125 60.445312 151.664062 55.015625 148.179688 50.300781 " fill-opacity="1" fill-rule="nonzero"/></g><g clip-path="url(#994c22249d)"><path fill="#1f59b0" d="M 150.949219 53.386719 C 151.199219 51.347656 150.28125 49.183594 149.511719 47.363281 C 148.519531 45.011719 147.113281 43.113281 145.304688 41.328125 C 144.886719 40.902344 144.257812 41.441406 144.507812 41.941406 C 144.753906 42.445312 144.988281 42.96875 145.226562 43.476562 C 144.859375 43.09375 144.484375 42.714844 144.179688 42.421875 C 143.449219 41.738281 142.214844 42.617188 142.761719 43.515625 C 142.816406 43.609375 142.871094 43.703125 142.925781 43.789062 C 142.703125 43.949219 142.582031 44.226562 142.777344 44.484375 C 142.910156 44.65625 143.050781 44.855469 143.183594 45.03125 C 143.195312 45.050781 143.1875 45.0625 143.203125 45.082031 C 143.371094 45.28125 143.523438 45.496094 143.675781 45.703125 C 144.796875 47.292969 145.84375 48.945312 146.824219 50.621094 C 147.480469 51.742188 148.136719 52.886719 148.898438 53.945312 C 149 55.652344 149.171875 57.347656 149.839844 58.742188 C 150.007812 59.097656 150.578125 59.074219 150.753906 58.742188 C 151.585938 57.167969 151.429688 55.242188 150.949219 53.386719 " fill-opacity="1" fill-rule="nonzero"/></g><path fill="#ee233b" d="M 127.738281 60.921875 C 126.847656 58.914062 125.117188 56.027344 122.683594 55.699219 C 121.652344 55.5625 120.695312 55.9375 120.0625 56.585938 C 119.578125 56.46875 119.082031 56.390625 118.558594 56.402344 C 117.855469 56.40625 117.363281 56.90625 117.183594 57.496094 C 116.867188 57.804688 116.648438 58.226562 116.652344 58.898438 C 116.664062 59.648438 117.503906 60.191406 118.183594 59.804688 C 118.210938 59.84375 118.242188 59.886719 118.277344 59.925781 C 118.355469 60.324219 119.90625 62.183594 120.199219 62.652344 C 120.253906 62.75 120.28125 62.863281 120.332031 62.960938 C 120.910156 64.183594 121.023438 65.378906 120.796875 66.734375 C 120.671875 67.496094 120.722656 68.460938 121.390625 68.988281 C 121.480469 69.058594 121.554688 69.085938 121.628906 69.136719 C 121.023438 70.964844 119.136719 71.839844 116.449219 71.820312 C 113.601562 71.804688 111.042969 71.296875 109.050781 69.0625 C 107.648438 67.492188 107.476562 65.222656 105.589844 64.195312 C 105.050781 63.898438 104.390625 64.070312 104.0625 64.59375 C 104.050781 64.617188 104.050781 64.636719 104.039062 64.660156 C 103.855469 64.753906 103.699219 64.90625 103.679688 65.164062 C 103.671875 65.316406 103.695312 65.453125 103.691406 65.605469 C 103.523438 66.320312 103.605469 67.066406 103.859375 67.808594 C 104.066406 68.902344 104.546875 69.851562 105.109375 70.738281 C 105.40625 72.515625 106.652344 74.035156 108.285156 74.921875 C 109.707031 76.003906 111.375 76.515625 113.238281 76.539062 C 113.242188 76.539062 113.253906 76.539062 113.257812 76.539062 C 113.28125 76.539062 113.3125 76.554688 113.335938 76.558594 C 115.917969 77.636719 118.664062 77.855469 121.757812 76.691406 C 124.179688 75.78125 125.878906 74.132812 126.800781 72.105469 C 129.292969 69.253906 129.230469 64.324219 127.738281 60.921875 " fill-opacity="1" fill-rule="nonzero"/><path fill="#a5242a" d="M 126.039062 56.683594 C 125.894531 56.683594 125.894531 56.925781 126.039062 56.925781 C 126.199219 56.925781 126.199219 56.683594 126.039062 56.683594 " fill-opacity="1" fill-rule="nonzero"/><g clip-path="url(#3f1b2e80df)"><path fill="#f46f6f" d="M 168.996094 65.25 C 168.511719 64.558594 167.121094 64.40625 166.660156 65.269531 C 166.207031 64.40625 164.816406 64.558594 164.332031 65.25 C 163.574219 66.339844 164.101562 68 166.425781 68.898438 C 166.582031 68.957031 166.746094 68.957031 166.898438 68.898438 C 169.226562 68 169.75 66.339844 168.996094 65.25 " fill-opacity="1" fill-rule="nonzero"/></g><path fill="#f57661" d="M 170.695312 73.773438 C 171.058594 74.140625 171.238281 74.609375 171.238281 75.082031 C 171.238281 75.558594 171.058594 76.03125 170.695312 76.390625 L 168.820312 78.253906 C 168.074219 77.46875 167.0625 76.460938 166.1875 75.632812 L 168.070312 73.773438 C 168.796875 73.054688 169.96875 73.054688 170.695312 73.773438 " fill-opacity="1" fill-rule="nonzero"/><g clip-path="url(#dbade8d425)"><path fill="#f8a47e" d="M 160.6875 81.953125 C 160.578125 81.820312 160.480469 81.703125 160.417969 81.613281 C 159.910156 80.894531 159.886719 79.929688 160.5625 79.382812 C 160.933594 79.082031 161.722656 78.679688 162.390625 79.28125 C 162 78.875 161.613281 78.457031 161.402344 78.210938 C 160.9375 77.667969 161.0625 76.628906 161.355469 76.199219 C 161.832031 75.496094 162.824219 75.34375 163.441406 75.914062 L 163.332031 75.804688 C 162.71875 75.191406 162.652344 74.128906 163.332031 73.589844 C 163.769531 73.242188 164.722656 72.996094 165.558594 73.589844 C 165.929688 73.851562 166.4375 74.300781 166.992188 74.828125 C 167.871094 75.660156 168.867188 76.679688 169.613281 77.460938 C 170.289062 78.167969 170.757812 78.679688 170.757812 78.679688 C 173.234375 81.144531 173.234375 85.144531 170.757812 87.617188 C 169.523438 88.851562 167.898438 89.464844 166.277344 89.464844 C 164.65625 89.464844 163.03125 88.640625 161.742188 87.375 C 161.101562 86.746094 160.050781 85.441406 159.671875 84.730469 C 159.269531 83.964844 159.453125 83.148438 159.691406 82.777344 C 159.925781 82.414062 160.246094 82.109375 160.6875 81.953125 " fill-opacity="1" fill-rule="nonzero"/></g><g clip-path="url(#59075e3755)"><path fill="#7e2d4e" d="M 170.585938 87.445312 C 169.4375 88.589844 167.90625 89.222656 166.277344 89.222656 C 164.789062 89.222656 163.238281 88.503906 161.914062 87.199219 C 161.300781 86.601562 160.261719 85.316406 159.886719 84.617188 C 159.527344 83.9375 159.703125 83.210938 159.894531 82.910156 C 160.097656 82.597656 160.339844 82.382812 160.621094 82.25 C 161.015625 82.699219 161.5 83.207031 161.519531 83.230469 C 161.570312 83.28125 161.632812 83.304688 161.699219 83.304688 C 161.757812 83.304688 161.820312 83.285156 161.867188 83.238281 C 161.964844 83.144531 161.96875 82.992188 161.875 82.894531 C 161.871094 82.886719 161.273438 82.257812 160.875 81.796875 C 160.777344 81.679688 160.679688 81.5625 160.617188 81.472656 C 160.210938 80.898438 160.113281 80.058594 160.714844 79.570312 C 160.917969 79.40625 161.621094 78.917969 162.214844 79.457031 C 162.804688 80.074219 163.398438 80.683594 163.398438 80.683594 C 163.445312 80.730469 163.507812 80.757812 163.570312 80.757812 C 163.632812 80.757812 163.695312 80.734375 163.742188 80.6875 C 163.839844 80.59375 163.839844 80.4375 163.746094 80.339844 C 163.746094 80.339844 163.191406 79.773438 162.621094 79.175781 C 162.617188 79.167969 162.617188 79.160156 162.609375 79.15625 L 162.578125 79.125 L 162.574219 79.125 C 162.574219 79.121094 162.570312 79.117188 162.566406 79.117188 C 162.121094 78.644531 161.773438 78.269531 161.589844 78.054688 C 161.222656 77.621094 161.308594 76.707031 161.558594 76.335938 C 161.753906 76.046875 162.066406 75.855469 162.410156 75.816406 C 162.730469 75.777344 163.03125 75.875 163.273438 76.09375 L 166.511719 79.347656 C 166.609375 79.445312 166.761719 79.445312 166.859375 79.351562 C 166.953125 79.253906 166.957031 79.101562 166.859375 79.003906 L 163.660156 75.789062 C 163.65625 75.785156 163.65625 75.78125 163.652344 75.777344 C 163.632812 75.757812 163.617188 75.742188 163.609375 75.734375 L 163.503906 75.632812 C 163.226562 75.351562 163.070312 74.953125 163.09375 74.5625 C 163.113281 74.242188 163.25 73.964844 163.484375 73.78125 C 163.835938 73.5 164.667969 73.257812 165.417969 73.789062 C 165.746094 74.019531 166.21875 74.429688 166.824219 75.003906 C 167.726562 75.859375 168.742188 76.902344 169.4375 77.628906 C 170.109375 78.332031 170.578125 78.84375 170.585938 78.851562 C 171.738281 79.996094 172.371094 81.523438 172.371094 83.144531 C 172.371094 84.769531 171.738281 86.292969 170.585938 87.445312 Z M 168.242188 73.949219 C 168.871094 73.324219 169.894531 73.324219 170.523438 73.945312 C 170.828125 74.253906 170.996094 74.65625 170.996094 75.082031 C 170.996094 75.511719 170.828125 75.917969 170.523438 76.21875 L 169.621094 77.113281 C 168.980469 76.449219 168.132812 75.582031 167.34375 74.824219 Z M 170.9375 78.511719 C 170.9375 78.511719 170.542969 78.082031 169.957031 77.464844 L 170.871094 76.566406 C 171.265625 76.167969 171.484375 75.644531 171.484375 75.082031 C 171.484375 74.527344 171.265625 74 170.871094 73.601562 C 170.050781 72.789062 168.714844 72.789062 167.898438 73.601562 L 166.988281 74.488281 C 166.449219 73.980469 166.015625 73.613281 165.699219 73.390625 C 164.730469 72.699219 163.660156 73.015625 163.179688 73.398438 C 162.835938 73.667969 162.632812 74.074219 162.605469 74.535156 C 162.589844 74.808594 162.636719 75.082031 162.738281 75.335938 C 162.613281 75.320312 162.484375 75.316406 162.355469 75.332031 C 161.867188 75.386719 161.429688 75.65625 161.152344 76.0625 C 160.808594 76.570312 160.664062 77.71875 161.214844 78.367188 C 161.300781 78.472656 161.414062 78.597656 161.539062 78.730469 C 161.117188 78.75 160.710938 78.949219 160.40625 79.191406 C 159.667969 79.789062 159.589844 80.867188 160.214844 81.753906 C 160.238281 81.785156 160.269531 81.824219 160.300781 81.859375 C 159.984375 82.035156 159.710938 82.296875 159.484375 82.644531 C 159.222656 83.050781 158.996094 83.976562 159.457031 84.84375 C 159.855469 85.59375 160.921875 86.914062 161.570312 87.546875 C 162.988281 88.941406 164.660156 89.710938 166.277344 89.710938 C 168.039062 89.710938 169.691406 89.027344 170.929688 87.789062 C 172.175781 86.546875 172.859375 84.898438 172.859375 83.144531 C 172.859375 81.390625 172.175781 79.746094 170.9375 78.511719 " fill-opacity="1" fill-rule="nonzero"/></g><path fill="#7e2d4e" d="M 166.414062 73.097656 C 166.457031 73.128906 166.511719 73.144531 166.5625 73.144531 C 166.636719 73.144531 166.707031 73.113281 166.757812 73.046875 C 167.257812 72.378906 166.957031 71.777344 166.714844 71.292969 C 166.441406 70.742188 166.308594 70.410156 166.742188 69.976562 C 166.835938 69.882812 166.835938 69.726562 166.742188 69.632812 C 166.644531 69.539062 166.488281 69.539062 166.394531 69.632812 C 165.691406 70.332031 166.015625 70.984375 166.277344 71.507812 C 166.527344 72.019531 166.667969 72.351562 166.363281 72.757812 C 166.285156 72.863281 166.304688 73.015625 166.414062 73.097656 " fill-opacity="1" fill-rule="nonzero"/><g clip-path="url(#f316291a58)"><path fill="#7e2d4e" d="M 164.472656 65.34375 C 164.710938 65.007812 165.179688 64.804688 165.632812 64.804688 C 166.050781 64.804688 166.457031 64.976562 166.660156 65.363281 C 166.867188 64.976562 167.273438 64.804688 167.691406 64.804688 C 168.148438 64.804688 168.617188 65.007812 168.855469 65.34375 C 169.566406 66.367188 169.070312 67.929688 166.886719 68.773438 C 166.8125 68.800781 166.738281 68.8125 166.664062 68.8125 C 166.589844 68.8125 166.515625 68.800781 166.441406 68.773438 C 164.253906 67.929688 163.761719 66.367188 164.472656 65.34375 Z M 166.265625 69.226562 C 166.394531 69.277344 166.527344 69.300781 166.664062 69.300781 C 166.800781 69.300781 166.933594 69.277344 167.0625 69.226562 C 168.371094 68.722656 169.253906 67.921875 169.546875 66.96875 C 169.75 66.304688 169.648438 65.628906 169.257812 65.066406 C 168.9375 64.609375 168.324219 64.316406 167.691406 64.316406 C 167.300781 64.316406 166.941406 64.429688 166.664062 64.636719 C 166.382812 64.429688 166.027344 64.316406 165.632812 64.316406 C 165.003906 64.316406 164.386719 64.609375 164.070312 65.066406 C 163.679688 65.628906 163.578125 66.304688 163.78125 66.96875 C 164.074219 67.921875 164.957031 68.722656 166.265625 69.226562 " fill-opacity="1" fill-rule="nonzero"/></g><g fill="#000000" fill-opacity="1"><g transform="translate(88.005238, 100.654511)"><g><path d="M 2.640625 -7.578125 C 2.535156 -7.597656 2.453125 -7.613281 2.390625 -7.625 C 2.335938 -7.644531 2.289062 -7.664062 2.25 -7.6875 C 2.019531 -7.78125 1.878906 -7.894531 1.828125 -8.03125 C 1.785156 -8.175781 1.816406 -8.390625 1.921875 -8.671875 C 2.109375 -9.191406 2.484375 -9.429688 3.046875 -9.390625 C 3.546875 -9.328125 4.0625 -9.222656 4.59375 -9.078125 C 5.125 -8.941406 5.707031 -8.753906 6.34375 -8.515625 C 7.207031 -8.203125 8.03125 -7.8125 8.8125 -7.34375 C 9.59375 -6.875 10.316406 -6.351562 10.984375 -5.78125 C 11.648438 -5.21875 12.234375 -4.617188 12.734375 -3.984375 C 13.242188 -3.359375 13.65625 -2.726562 13.96875 -2.09375 C 14.289062 -1.457031 14.5 -0.835938 14.59375 -0.234375 C 14.6875 0.367188 14.640625 0.925781 14.453125 1.4375 C 14.265625 1.945312 13.910156 2.367188 13.390625 2.703125 C 12.867188 3.035156 12.253906 3.269531 11.546875 3.40625 C 10.835938 3.550781 10.054688 3.585938 9.203125 3.515625 C 8.359375 3.441406 7.519531 3.25 6.6875 2.9375 C 6.019531 2.695312 5.34375 2.382812 4.65625 2 C 3.96875 1.613281 3.234375 1.113281 2.453125 0.5 C 2.085938 0.238281 1.976562 -0.0820312 2.125 -0.46875 C 2.15625 -0.550781 2.203125 -0.617188 2.265625 -0.671875 C 2.328125 -0.734375 2.394531 -0.789062 2.46875 -0.84375 C 2.539062 -0.894531 2.601562 -0.941406 2.65625 -0.984375 C 2.71875 -1.023438 2.757812 -1.082031 2.78125 -1.15625 C 2.914062 -1.53125 3.039062 -1.9375 3.15625 -2.375 C 3.28125 -2.820312 3.390625 -3.269531 3.484375 -3.71875 C 3.585938 -4.164062 3.671875 -4.597656 3.734375 -5.015625 C 3.796875 -5.441406 3.835938 -5.820312 3.859375 -6.15625 C 3.878906 -6.488281 3.878906 -6.757812 3.859375 -6.96875 C 3.835938 -7.1875 3.789062 -7.3125 3.71875 -7.34375 C 3.601562 -7.382812 3.457031 -7.414062 3.28125 -7.4375 C 3.113281 -7.46875 2.898438 -7.515625 2.640625 -7.578125 Z M 6.46875 -6.34375 C 6.28125 -6.414062 6.164062 -6.390625 6.125 -6.265625 C 6.101562 -6.222656 6.085938 -6.15625 6.078125 -6.0625 C 6.078125 -5.976562 6.0625 -5.847656 6.03125 -5.671875 C 5.988281 -5.367188 5.9375 -5.050781 5.875 -4.71875 C 5.8125 -4.382812 5.734375 -4.015625 5.640625 -3.609375 C 5.554688 -3.203125 5.445312 -2.742188 5.3125 -2.234375 C 5.1875 -1.734375 5.039062 -1.164062 4.875 -0.53125 C 4.851562 -0.4375 4.910156 -0.3125 5.046875 -0.15625 C 5.179688 -0.0078125 5.375 0.144531 5.625 0.3125 C 5.882812 0.488281 6.191406 0.664062 6.546875 0.84375 C 6.898438 1.019531 7.265625 1.175781 7.640625 1.3125 C 8.160156 1.5 8.675781 1.617188 9.1875 1.671875 C 9.695312 1.722656 10.171875 1.710938 10.609375 1.640625 C 11.046875 1.566406 11.421875 1.4375 11.734375 1.25 C 12.046875 1.0625 12.253906 0.820312 12.359375 0.53125 C 12.535156 0.0507812 12.515625 -0.484375 12.296875 -1.078125 C 12.085938 -1.671875 11.71875 -2.273438 11.1875 -2.890625 C 10.664062 -3.503906 10.003906 -4.109375 9.203125 -4.703125 C 8.398438 -5.304688 7.488281 -5.851562 6.46875 -6.34375 Z M 6.46875 -6.34375 "/></g></g></g><g fill="#000000" fill-opacity="1"><g transform="translate(101.717975, 105.582049)"><g><path d="M 1.046875 -1.921875 C 0.929688 -1.941406 0.859375 -2.015625 0.828125 -2.140625 C 0.796875 -2.273438 0.800781 -2.445312 0.84375 -2.65625 C 0.851562 -2.6875 0.859375 -2.722656 0.859375 -2.765625 C 0.867188 -2.804688 0.898438 -2.894531 0.953125 -3.03125 C 1.078125 -3.519531 1.378906 -3.757812 1.859375 -3.75 L 2.078125 -3.71875 C 2.242188 -3.707031 2.378906 -3.734375 2.484375 -3.796875 C 2.597656 -3.859375 2.691406 -3.957031 2.765625 -4.09375 C 2.941406 -4.457031 3.128906 -4.828125 3.328125 -5.203125 C 3.535156 -5.578125 3.742188 -5.945312 3.953125 -6.3125 C 4.078125 -6.519531 4.195312 -6.742188 4.3125 -6.984375 C 4.425781 -7.222656 4.550781 -7.453125 4.6875 -7.671875 C 4.832031 -7.898438 4.984375 -8.125 5.140625 -8.34375 C 5.296875 -8.5625 5.46875 -8.757812 5.65625 -8.9375 C 5.738281 -9 5.84375 -9.0625 5.96875 -9.125 C 6.09375 -9.195312 6.234375 -9.253906 6.390625 -9.296875 C 6.546875 -9.335938 6.707031 -9.363281 6.875 -9.375 C 7.039062 -9.394531 7.203125 -9.390625 7.359375 -9.359375 C 7.566406 -9.316406 7.757812 -9.207031 7.9375 -9.03125 C 8.164062 -8.789062 8.382812 -8.515625 8.59375 -8.203125 C 8.800781 -7.890625 9.023438 -7.5 9.265625 -7.03125 C 9.515625 -6.5625 9.789062 -5.992188 10.09375 -5.328125 C 10.394531 -4.671875 10.769531 -3.878906 11.21875 -2.953125 C 11.289062 -2.835938 11.367188 -2.742188 11.453125 -2.671875 C 11.535156 -2.597656 11.644531 -2.546875 11.78125 -2.515625 L 12.375 -2.390625 C 12.613281 -2.347656 12.785156 -2.253906 12.890625 -2.109375 C 13.003906 -1.972656 13.039062 -1.804688 13 -1.609375 C 13 -1.566406 12.988281 -1.519531 12.96875 -1.46875 C 12.957031 -1.414062 12.929688 -1.359375 12.890625 -1.296875 L 12.59375 -0.78125 C 12.570312 -0.71875 12.550781 -0.664062 12.53125 -0.625 C 12.507812 -0.582031 12.5 -0.539062 12.5 -0.5 C 12.46875 -0.363281 12.484375 -0.207031 12.546875 -0.03125 L 13.34375 1.6875 C 13.4375 1.894531 13.46875 2.082031 13.4375 2.25 C 13.382812 2.488281 13.191406 2.675781 12.859375 2.8125 L 12.4375 3.015625 C 12.3125 3.054688 12.203125 3.082031 12.109375 3.09375 C 12.015625 3.101562 11.929688 3.101562 11.859375 3.09375 C 11.734375 3.0625 11.625 3 11.53125 2.90625 C 11.4375 2.8125 11.347656 2.695312 11.265625 2.5625 C 11.046875 2.03125 10.8125 1.503906 10.5625 0.984375 C 10.320312 0.460938 10.078125 -0.0546875 9.828125 -0.578125 C 9.710938 -0.816406 9.523438 -0.960938 9.265625 -1.015625 C 8.410156 -1.148438 7.570312 -1.273438 6.75 -1.390625 C 5.925781 -1.503906 5.085938 -1.601562 4.234375 -1.6875 C 3.941406 -1.707031 3.726562 -1.582031 3.59375 -1.3125 L 2.78125 0.28125 C 2.570312 0.71875 2.253906 0.894531 1.828125 0.8125 L 1.65625 0.78125 L 1.34375 0.671875 C 1.125 0.609375 0.960938 0.5 0.859375 0.34375 C 0.765625 0.195312 0.738281 0.0195312 0.78125 -0.1875 C 0.789062 -0.226562 0.800781 -0.269531 0.8125 -0.3125 C 0.832031 -0.351562 0.859375 -0.398438 0.890625 -0.453125 C 0.941406 -0.585938 1 -0.71875 1.0625 -0.84375 C 1.132812 -0.976562 1.210938 -1.113281 1.296875 -1.25 C 1.316406 -1.300781 1.332031 -1.347656 1.34375 -1.390625 C 1.363281 -1.441406 1.375 -1.488281 1.375 -1.53125 C 1.414062 -1.738281 1.351562 -1.859375 1.1875 -1.890625 Z M 7.0625 -6.34375 C 7 -6.4375 6.941406 -6.507812 6.890625 -6.5625 C 6.847656 -6.613281 6.796875 -6.644531 6.734375 -6.65625 C 6.566406 -6.6875 6.425781 -6.59375 6.3125 -6.375 C 6.09375 -5.976562 5.878906 -5.597656 5.671875 -5.234375 C 5.472656 -4.867188 5.265625 -4.5 5.046875 -4.125 C 5.023438 -4.082031 5.007812 -4.046875 5 -4.015625 C 5 -3.992188 4.992188 -3.96875 4.984375 -3.9375 C 4.929688 -3.675781 5.035156 -3.519531 5.296875 -3.46875 L 5.40625 -3.4375 C 5.820312 -3.414062 6.242188 -3.378906 6.671875 -3.328125 C 7.097656 -3.273438 7.515625 -3.21875 7.921875 -3.15625 C 8.054688 -3.144531 8.171875 -3.160156 8.265625 -3.203125 C 8.359375 -3.242188 8.410156 -3.3125 8.421875 -3.40625 C 8.441406 -3.488281 8.425781 -3.597656 8.375 -3.734375 C 8.15625 -4.191406 7.9375 -4.632812 7.71875 -5.0625 C 7.5 -5.488281 7.28125 -5.914062 7.0625 -6.34375 Z M 7.0625 -6.34375 "/></g></g></g><g fill="#000000" fill-opacity="1"><g transform="translate(114.688879, 108.184704)"><g><path d="M 1.8125 -2.5 C 1.78125 -2.5 1.742188 -2.492188 1.703125 -2.484375 C 1.660156 -2.484375 1.613281 -2.484375 1.5625 -2.484375 C 1.507812 -2.484375 1.457031 -2.476562 1.40625 -2.46875 C 1.351562 -2.457031 1.316406 -2.453125 1.296875 -2.453125 C 1.097656 -2.460938 0.929688 -2.554688 0.796875 -2.734375 C 0.660156 -2.910156 0.597656 -3.132812 0.609375 -3.40625 C 0.617188 -3.59375 0.6875 -3.765625 0.8125 -3.921875 C 0.9375 -4.078125 1.128906 -4.207031 1.390625 -4.3125 C 1.460938 -4.34375 1.523438 -4.378906 1.578125 -4.421875 C 1.628906 -4.460938 1.65625 -4.523438 1.65625 -4.609375 C 1.664062 -4.828125 1.671875 -5.066406 1.671875 -5.328125 C 1.679688 -5.585938 1.679688 -5.882812 1.671875 -6.21875 C 1.671875 -6.289062 1.648438 -6.359375 1.609375 -6.421875 C 1.578125 -6.484375 1.539062 -6.550781 1.5 -6.625 C 1.457031 -6.707031 1.421875 -6.800781 1.390625 -6.90625 C 1.359375 -7.007812 1.347656 -7.132812 1.359375 -7.28125 C 1.359375 -7.414062 1.382812 -7.566406 1.4375 -7.734375 C 1.488281 -7.898438 1.578125 -8.054688 1.703125 -8.203125 C 1.828125 -8.347656 2 -8.460938 2.21875 -8.546875 C 2.445312 -8.640625 2.742188 -8.675781 3.109375 -8.65625 C 3.253906 -8.65625 3.375 -8.640625 3.46875 -8.609375 C 3.570312 -8.578125 3.660156 -8.539062 3.734375 -8.5 C 3.804688 -8.457031 3.867188 -8.414062 3.921875 -8.375 C 3.972656 -8.34375 4.03125 -8.328125 4.09375 -8.328125 C 4.207031 -8.328125 4.429688 -8.335938 4.765625 -8.359375 C 5.109375 -8.378906 5.515625 -8.414062 5.984375 -8.46875 C 6.460938 -8.53125 6.988281 -8.59375 7.5625 -8.65625 C 8.144531 -8.726562 8.734375 -8.804688 9.328125 -8.890625 C 9.921875 -8.984375 10.5 -9.070312 11.0625 -9.15625 C 11.625 -9.25 12.132812 -9.34375 12.59375 -9.4375 C 12.738281 -9.457031 12.863281 -9.46875 12.96875 -9.46875 C 13.113281 -9.457031 13.226562 -9.414062 13.3125 -9.34375 C 13.394531 -9.269531 13.453125 -9.179688 13.484375 -9.078125 C 13.523438 -8.984375 13.546875 -8.875 13.546875 -8.75 C 13.554688 -8.632812 13.554688 -8.523438 13.546875 -8.421875 C 13.535156 -8.234375 13.46875 -8.0625 13.34375 -7.90625 C 13.21875 -7.757812 13.007812 -7.644531 12.71875 -7.5625 C 12.007812 -7.40625 11.300781 -7.265625 10.59375 -7.140625 C 9.882812 -7.023438 9.171875 -6.925781 8.453125 -6.84375 C 7.734375 -6.757812 7.015625 -6.6875 6.296875 -6.625 C 5.578125 -6.5625 4.851562 -6.5 4.125 -6.4375 C 4.03125 -6.425781 3.957031 -6.394531 3.90625 -6.34375 C 3.851562 -6.289062 3.820312 -6.210938 3.8125 -6.109375 L 3.796875 -5.703125 C 3.785156 -5.578125 3.78125 -5.453125 3.78125 -5.328125 C 3.789062 -5.203125 3.800781 -5.082031 3.8125 -4.96875 C 3.832031 -4.863281 3.863281 -4.773438 3.90625 -4.703125 C 3.945312 -4.640625 4 -4.609375 4.0625 -4.609375 C 4.226562 -4.597656 4.488281 -4.613281 4.84375 -4.65625 C 5.207031 -4.707031 5.613281 -4.773438 6.0625 -4.859375 C 6.507812 -4.941406 6.976562 -5.03125 7.46875 -5.125 C 7.957031 -5.21875 8.421875 -5.304688 8.859375 -5.390625 C 9.296875 -5.472656 9.679688 -5.535156 10.015625 -5.578125 C 10.347656 -5.628906 10.582031 -5.648438 10.71875 -5.640625 C 10.914062 -5.640625 11.0625 -5.566406 11.15625 -5.421875 C 11.25 -5.285156 11.304688 -5.101562 11.328125 -4.875 C 11.328125 -4.84375 11.328125 -4.8125 11.328125 -4.78125 C 11.335938 -4.75 11.34375 -4.71875 11.34375 -4.6875 C 11.332031 -4.476562 11.257812 -4.289062 11.125 -4.125 C 11 -3.96875 10.773438 -3.851562 10.453125 -3.78125 C 10.367188 -3.757812 10.195312 -3.722656 9.9375 -3.671875 C 9.6875 -3.628906 9.382812 -3.578125 9.03125 -3.515625 C 8.6875 -3.453125 8.3125 -3.382812 7.90625 -3.3125 C 7.507812 -3.238281 7.117188 -3.171875 6.734375 -3.109375 C 6.359375 -3.046875 6 -2.976562 5.65625 -2.90625 C 5.320312 -2.84375 5.050781 -2.789062 4.84375 -2.75 C 4.644531 -2.71875 4.523438 -2.6875 4.484375 -2.65625 C 4.441406 -2.625 4.421875 -2.585938 4.421875 -2.546875 C 4.421875 -2.398438 4.488281 -2.253906 4.625 -2.109375 C 4.769531 -1.972656 4.945312 -1.84375 5.15625 -1.71875 C 5.375 -1.601562 5.613281 -1.488281 5.875 -1.375 C 6.144531 -1.269531 6.425781 -1.179688 6.71875 -1.109375 C 7.019531 -1.035156 7.3125 -0.972656 7.59375 -0.921875 C 7.882812 -0.867188 8.148438 -0.835938 8.390625 -0.828125 C 8.492188 -0.828125 8.644531 -0.820312 8.84375 -0.8125 C 9.039062 -0.800781 9.253906 -0.789062 9.484375 -0.78125 C 9.722656 -0.78125 9.96875 -0.785156 10.21875 -0.796875 C 10.46875 -0.804688 10.691406 -0.820312 10.890625 -0.84375 C 11.097656 -0.875 11.265625 -0.914062 11.390625 -0.96875 C 11.523438 -1.03125 11.597656 -1.101562 11.609375 -1.1875 C 11.609375 -1.257812 11.582031 -1.335938 11.53125 -1.421875 C 11.488281 -1.503906 11.46875 -1.597656 11.46875 -1.703125 C 11.476562 -1.835938 11.519531 -1.972656 11.59375 -2.109375 C 11.675781 -2.242188 11.78125 -2.359375 11.90625 -2.453125 C 12.039062 -2.554688 12.1875 -2.640625 12.34375 -2.703125 C 12.507812 -2.765625 12.675781 -2.789062 12.84375 -2.78125 C 13.039062 -2.769531 13.21875 -2.722656 13.375 -2.640625 C 13.539062 -2.554688 13.679688 -2.441406 13.796875 -2.296875 C 13.921875 -2.160156 14.007812 -2.003906 14.0625 -1.828125 C 14.125 -1.660156 14.15625 -1.492188 14.15625 -1.328125 C 14.125 -0.859375 13.925781 -0.460938 13.5625 -0.140625 C 13.207031 0.171875 12.753906 0.425781 12.203125 0.625 C 11.648438 0.820312 11.023438 0.953125 10.328125 1.015625 C 9.640625 1.085938 8.945312 1.109375 8.25 1.078125 C 7.445312 1.035156 6.710938 0.941406 6.046875 0.796875 C 5.390625 0.660156 4.796875 0.457031 4.265625 0.1875 C 3.742188 -0.0703125 3.300781 -0.398438 2.9375 -0.796875 C 2.570312 -1.203125 2.285156 -1.6875 2.078125 -2.25 C 1.992188 -2.40625 1.90625 -2.488281 1.8125 -2.5 Z M 1.8125 -2.5 "/></g></g></g><g fill="#000000" fill-opacity="1"><g transform="translate(128.574876, 108.765082)"><g><path d="M 2.25 0.734375 C 2.03125 -0.554688 1.773438 -1.816406 1.484375 -3.046875 C 1.203125 -4.273438 0.878906 -5.515625 0.515625 -6.765625 C 0.484375 -6.847656 0.445312 -6.914062 0.40625 -6.96875 C 0.375 -7.019531 0.332031 -7.039062 0.28125 -7.03125 C 0.238281 -7.03125 0.191406 -7.023438 0.140625 -7.015625 C 0.0859375 -7.003906 0.03125 -6.992188 -0.03125 -6.984375 C -0.289062 -6.960938 -0.5 -7.015625 -0.65625 -7.140625 C -0.8125 -7.265625 -0.898438 -7.425781 -0.921875 -7.625 C -0.929688 -7.851562 -0.847656 -8.082031 -0.671875 -8.3125 C -0.503906 -8.550781 -0.273438 -8.78125 0.015625 -9 C 0.304688 -9.21875 0.644531 -9.425781 1.03125 -9.625 C 1.425781 -9.820312 1.832031 -9.992188 2.25 -10.140625 C 2.675781 -10.296875 3.09375 -10.425781 3.5 -10.53125 C 3.914062 -10.632812 4.296875 -10.703125 4.640625 -10.734375 C 5.253906 -10.785156 5.789062 -10.753906 6.25 -10.640625 C 6.71875 -10.535156 7.109375 -10.367188 7.421875 -10.140625 C 7.734375 -9.910156 7.972656 -9.640625 8.140625 -9.328125 C 8.304688 -9.015625 8.40625 -8.679688 8.4375 -8.328125 C 8.46875 -7.972656 8.425781 -7.582031 8.3125 -7.15625 C 8.195312 -6.738281 7.972656 -6.320312 7.640625 -5.90625 C 7.609375 -5.863281 7.585938 -5.828125 7.578125 -5.796875 C 7.566406 -5.765625 7.566406 -5.726562 7.578125 -5.6875 C 7.578125 -5.625 7.644531 -5.585938 7.78125 -5.578125 C 8.195312 -5.578125 8.597656 -5.515625 8.984375 -5.390625 C 9.367188 -5.265625 9.71875 -5.085938 10.03125 -4.859375 C 10.34375 -4.628906 10.601562 -4.347656 10.8125 -4.015625 C 11.019531 -3.691406 11.140625 -3.34375 11.171875 -2.96875 C 11.222656 -2.425781 11.160156 -1.941406 10.984375 -1.515625 C 10.804688 -1.097656 10.550781 -0.738281 10.21875 -0.4375 C 9.882812 -0.144531 9.472656 0.0859375 8.984375 0.265625 C 8.492188 0.441406 7.960938 0.550781 7.390625 0.59375 C 6.929688 0.632812 6.472656 0.632812 6.015625 0.59375 C 5.554688 0.5625 5.101562 0.5 4.65625 0.40625 C 4.632812 0.394531 4.59375 0.394531 4.53125 0.40625 C 4.414062 0.414062 4.328125 0.492188 4.265625 0.640625 C 4.171875 0.878906 4.015625 1.078125 3.796875 1.234375 C 3.585938 1.390625 3.375 1.476562 3.15625 1.5 C 2.945312 1.519531 2.757812 1.46875 2.59375 1.34375 C 2.4375 1.226562 2.320312 1.023438 2.25 0.734375 Z M 3.953125 -3.4375 C 3.796875 -3.363281 3.722656 -3.25 3.734375 -3.09375 C 3.742188 -3.070312 3.757812 -2.992188 3.78125 -2.859375 C 3.8125 -2.722656 3.847656 -2.582031 3.890625 -2.4375 C 3.941406 -2.269531 3.988281 -2.082031 4.03125 -1.875 C 4.070312 -1.695312 4.175781 -1.59375 4.34375 -1.5625 C 4.570312 -1.519531 4.816406 -1.476562 5.078125 -1.4375 C 5.347656 -1.394531 5.625 -1.351562 5.90625 -1.3125 C 6.1875 -1.28125 6.472656 -1.257812 6.765625 -1.25 C 7.054688 -1.238281 7.332031 -1.25 7.59375 -1.28125 C 7.800781 -1.289062 7.992188 -1.328125 8.171875 -1.390625 C 8.359375 -1.460938 8.519531 -1.550781 8.65625 -1.65625 C 8.789062 -1.769531 8.894531 -1.90625 8.96875 -2.0625 C 9.050781 -2.226562 9.082031 -2.421875 9.0625 -2.640625 C 9.03125 -2.941406 8.914062 -3.1875 8.71875 -3.375 C 8.519531 -3.570312 8.28125 -3.726562 8 -3.84375 C 7.726562 -3.957031 7.429688 -4.03125 7.109375 -4.0625 C 6.796875 -4.09375 6.5 -4.09375 6.21875 -4.0625 C 5.84375 -4.03125 5.46875 -3.953125 5.09375 -3.828125 C 4.71875 -3.710938 4.335938 -3.582031 3.953125 -3.4375 Z M 2.6875 -8.34375 C 2.613281 -8.320312 2.554688 -8.296875 2.515625 -8.265625 C 2.484375 -8.234375 2.46875 -8.179688 2.46875 -8.109375 C 2.476562 -8.023438 2.503906 -7.882812 2.546875 -7.6875 C 2.597656 -7.5 2.65625 -7.28125 2.71875 -7.03125 C 2.789062 -6.78125 2.863281 -6.523438 2.9375 -6.265625 C 3.007812 -6.003906 3.078125 -5.769531 3.140625 -5.5625 C 3.171875 -5.425781 3.210938 -5.335938 3.265625 -5.296875 C 3.316406 -5.253906 3.375 -5.234375 3.4375 -5.234375 C 3.476562 -5.234375 3.53125 -5.242188 3.59375 -5.265625 C 3.664062 -5.296875 3.757812 -5.332031 3.875 -5.375 C 4.144531 -5.488281 4.4375 -5.613281 4.75 -5.75 C 5.0625 -5.894531 5.335938 -6.054688 5.578125 -6.234375 C 5.816406 -6.421875 6.007812 -6.632812 6.15625 -6.875 C 6.3125 -7.113281 6.378906 -7.378906 6.359375 -7.671875 C 6.335938 -7.898438 6.269531 -8.085938 6.15625 -8.234375 C 6.039062 -8.378906 5.890625 -8.492188 5.703125 -8.578125 C 5.515625 -8.671875 5.304688 -8.726562 5.078125 -8.75 C 4.859375 -8.769531 4.613281 -8.769531 4.34375 -8.75 C 4.0625 -8.726562 3.78125 -8.679688 3.5 -8.609375 C 3.21875 -8.546875 2.945312 -8.457031 2.6875 -8.34375 Z M 2.6875 -8.34375 "/></g></g></g><g fill="#000000" fill-opacity="1"><g transform="translate(140.018999, 107.77004)"><g><path d="M 0.171875 -2.1875 C 0.0546875 -2.164062 -0.0390625 -2.203125 -0.125 -2.296875 C -0.207031 -2.398438 -0.269531 -2.554688 -0.3125 -2.765625 C -0.320312 -2.796875 -0.332031 -2.832031 -0.34375 -2.875 C -0.351562 -2.914062 -0.367188 -3.007812 -0.390625 -3.15625 C -0.484375 -3.65625 -0.300781 -4 0.15625 -4.1875 L 0.375 -4.265625 C 0.53125 -4.304688 0.644531 -4.375 0.71875 -4.46875 C 0.789062 -4.570312 0.828125 -4.707031 0.828125 -4.875 C 0.859375 -5.28125 0.882812 -5.691406 0.90625 -6.109375 C 0.925781 -6.535156 0.960938 -6.957031 1.015625 -7.375 C 1.035156 -7.613281 1.050781 -7.863281 1.0625 -8.125 C 1.070312 -8.394531 1.09375 -8.660156 1.125 -8.921875 C 1.164062 -9.191406 1.210938 -9.457031 1.265625 -9.71875 C 1.316406 -9.988281 1.394531 -10.238281 1.5 -10.46875 C 1.539062 -10.5625 1.601562 -10.664062 1.6875 -10.78125 C 1.769531 -10.894531 1.875 -11 2 -11.09375 C 2.132812 -11.195312 2.273438 -11.289062 2.421875 -11.375 C 2.578125 -11.457031 2.726562 -11.515625 2.875 -11.546875 C 3.082031 -11.597656 3.300781 -11.578125 3.53125 -11.484375 C 3.84375 -11.367188 4.15625 -11.207031 4.46875 -11 C 4.78125 -10.800781 5.144531 -10.535156 5.5625 -10.203125 C 5.976562 -9.878906 6.460938 -9.476562 7.015625 -9 C 7.566406 -8.53125 8.226562 -7.960938 9 -7.296875 C 9.125 -7.210938 9.238281 -7.15625 9.34375 -7.125 C 9.457031 -7.09375 9.578125 -7.09375 9.703125 -7.125 L 10.296875 -7.265625 C 10.535156 -7.316406 10.734375 -7.300781 10.890625 -7.21875 C 11.054688 -7.144531 11.160156 -7.003906 11.203125 -6.796875 C 11.210938 -6.753906 11.21875 -6.707031 11.21875 -6.65625 C 11.226562 -6.601562 11.234375 -6.546875 11.234375 -6.484375 L 11.171875 -5.875 C 11.171875 -5.8125 11.171875 -5.753906 11.171875 -5.703125 C 11.171875 -5.660156 11.175781 -5.617188 11.1875 -5.578125 C 11.21875 -5.441406 11.296875 -5.3125 11.421875 -5.1875 L 12.875 -3.9375 C 13.03125 -3.78125 13.128906 -3.617188 13.171875 -3.453125 C 13.222656 -3.210938 13.128906 -2.96875 12.890625 -2.71875 L 12.578125 -2.359375 C 12.484375 -2.265625 12.394531 -2.191406 12.3125 -2.140625 C 12.238281 -2.097656 12.160156 -2.066406 12.078125 -2.046875 C 11.960938 -2.015625 11.84375 -2.019531 11.71875 -2.0625 C 11.59375 -2.113281 11.46875 -2.1875 11.34375 -2.28125 C 10.90625 -2.675781 10.46875 -3.0625 10.03125 -3.4375 C 9.601562 -3.8125 9.164062 -4.179688 8.71875 -4.546875 C 8.519531 -4.722656 8.289062 -4.78125 8.03125 -4.71875 C 7.195312 -4.507812 6.378906 -4.28125 5.578125 -4.03125 C 4.785156 -3.789062 3.988281 -3.535156 3.1875 -3.265625 C 2.894531 -3.171875 2.75 -2.972656 2.75 -2.671875 L 2.671875 -0.890625 C 2.648438 -0.398438 2.425781 -0.109375 2 -0.015625 L 1.828125 0.03125 L 1.515625 0.046875 C 1.273438 0.078125 1.082031 0.0507812 0.9375 -0.03125 C 0.789062 -0.125 0.691406 -0.269531 0.640625 -0.46875 C 0.628906 -0.507812 0.617188 -0.554688 0.609375 -0.609375 C 0.609375 -0.660156 0.613281 -0.71875 0.625 -0.78125 C 0.625 -0.925781 0.625 -1.070312 0.625 -1.21875 C 0.632812 -1.363281 0.644531 -1.515625 0.65625 -1.671875 C 0.65625 -1.734375 0.648438 -1.785156 0.640625 -1.828125 C 0.640625 -1.867188 0.632812 -1.910156 0.625 -1.953125 C 0.570312 -2.171875 0.46875 -2.257812 0.3125 -2.21875 Z M 3.828125 -8.6875 C 3.734375 -8.75 3.65625 -8.789062 3.59375 -8.8125 C 3.53125 -8.84375 3.472656 -8.847656 3.421875 -8.828125 C 3.242188 -8.785156 3.148438 -8.640625 3.140625 -8.390625 C 3.097656 -7.953125 3.054688 -7.519531 3.015625 -7.09375 C 2.984375 -6.675781 2.945312 -6.253906 2.90625 -5.828125 C 2.894531 -5.773438 2.894531 -5.734375 2.90625 -5.703125 C 2.914062 -5.679688 2.921875 -5.65625 2.921875 -5.625 C 2.984375 -5.375 3.148438 -5.28125 3.421875 -5.34375 L 3.53125 -5.375 C 3.925781 -5.519531 4.320312 -5.65625 4.71875 -5.78125 C 5.125 -5.90625 5.53125 -6.019531 5.9375 -6.125 C 6.050781 -6.175781 6.144531 -6.238281 6.21875 -6.3125 C 6.289062 -6.382812 6.316406 -6.46875 6.296875 -6.5625 C 6.273438 -6.65625 6.207031 -6.75 6.09375 -6.84375 C 5.71875 -7.175781 5.34375 -7.492188 4.96875 -7.796875 C 4.59375 -8.097656 4.210938 -8.394531 3.828125 -8.6875 Z M 3.828125 -8.6875 "/></g></g></g><g fill="#000000" fill-opacity="1"><g transform="translate(152.86594, 104.778267)"><g><path d="M 6.109375 -12.953125 C 6.203125 -12.691406 6.207031 -12.421875 6.125 -12.140625 C 6.039062 -11.859375 5.910156 -11.5625 5.734375 -11.25 C 5.566406 -10.945312 5.375 -10.640625 5.15625 -10.328125 C 4.9375 -10.023438 4.738281 -9.722656 4.5625 -9.421875 C 4.394531 -9.117188 4.265625 -8.832031 4.171875 -8.5625 C 4.085938 -8.289062 4.09375 -8.039062 4.1875 -7.8125 C 4.257812 -7.601562 4.460938 -7.457031 4.796875 -7.375 C 5.140625 -7.300781 5.609375 -7.269531 6.203125 -7.28125 C 6.796875 -7.300781 7.492188 -7.351562 8.296875 -7.4375 C 9.109375 -7.53125 10.007812 -7.640625 11 -7.765625 C 11.5 -7.828125 11.816406 -7.6875 11.953125 -7.34375 C 12.003906 -7.207031 12.019531 -7.066406 12 -6.921875 C 11.976562 -6.773438 11.9375 -6.632812 11.875 -6.5 C 11.820312 -6.363281 11.734375 -6.238281 11.609375 -6.125 C 11.492188 -6.019531 11.367188 -5.941406 11.234375 -5.890625 C 10.910156 -5.765625 10.519531 -5.664062 10.0625 -5.59375 C 9.613281 -5.53125 9.140625 -5.488281 8.640625 -5.46875 C 8.140625 -5.445312 7.632812 -5.4375 7.125 -5.4375 C 6.625 -5.445312 6.148438 -5.445312 5.703125 -5.4375 C 5.253906 -5.4375 4.859375 -5.425781 4.515625 -5.40625 C 4.179688 -5.394531 3.941406 -5.363281 3.796875 -5.3125 C 3.679688 -5.269531 3.585938 -5.171875 3.515625 -5.015625 C 3.453125 -4.867188 3.414062 -4.679688 3.40625 -4.453125 C 3.394531 -4.234375 3.40625 -3.984375 3.4375 -3.703125 C 3.46875 -3.421875 3.535156 -3.117188 3.640625 -2.796875 C 3.722656 -2.453125 3.691406 -2.148438 3.546875 -1.890625 C 3.410156 -1.640625 3.15625 -1.445312 2.78125 -1.3125 C 2.394531 -1.164062 2.097656 -1.257812 1.890625 -1.59375 C 1.585938 -2.113281 1.257812 -2.628906 0.90625 -3.140625 C 0.550781 -3.648438 0.179688 -4.160156 -0.203125 -4.671875 C -0.585938 -5.179688 -0.984375 -5.675781 -1.390625 -6.15625 C -1.796875 -6.632812 -2.203125 -7.085938 -2.609375 -7.515625 C -2.703125 -7.617188 -2.773438 -7.710938 -2.828125 -7.796875 C -2.890625 -7.878906 -2.941406 -7.96875 -2.984375 -8.0625 C -3.015625 -8.144531 -3.015625 -8.234375 -2.984375 -8.328125 C -2.960938 -8.421875 -2.914062 -8.515625 -2.84375 -8.609375 C -2.78125 -8.710938 -2.691406 -8.800781 -2.578125 -8.875 C -2.472656 -8.945312 -2.359375 -9.007812 -2.234375 -9.0625 C -1.960938 -9.164062 -1.726562 -9.191406 -1.53125 -9.140625 C -1.332031 -9.085938 -1.109375 -8.984375 -0.859375 -8.828125 C -0.734375 -8.753906 -0.597656 -8.644531 -0.453125 -8.5 C -0.316406 -8.351562 -0.179688 -8.191406 -0.046875 -8.015625 C 0.0859375 -7.847656 0.226562 -7.675781 0.375 -7.5 C 0.519531 -7.332031 0.648438 -7.175781 0.765625 -7.03125 C 0.878906 -6.894531 0.988281 -6.785156 1.09375 -6.703125 C 1.195312 -6.628906 1.28125 -6.601562 1.34375 -6.625 C 1.394531 -6.644531 1.425781 -6.6875 1.4375 -6.75 C 1.457031 -6.8125 1.476562 -6.898438 1.5 -7.015625 C 1.5625 -7.847656 1.6875 -8.632812 1.875 -9.375 C 2.0625 -10.113281 2.285156 -10.769531 2.546875 -11.34375 C 2.816406 -11.925781 3.117188 -12.410156 3.453125 -12.796875 C 3.796875 -13.191406 4.164062 -13.460938 4.5625 -13.609375 C 4.71875 -13.671875 4.875 -13.695312 5.03125 -13.6875 C 5.195312 -13.6875 5.347656 -13.660156 5.484375 -13.609375 C 5.617188 -13.554688 5.738281 -13.46875 5.84375 -13.34375 C 5.957031 -13.226562 6.046875 -13.097656 6.109375 -12.953125 Z M 6.109375 -12.953125 "/></g></g></g><g fill="#000000" fill-opacity="1"><g transform="translate(117.922079, 116.115859)"><g><path d="M 0.421875 -0.6875 L 0.421875 -2.78125 L 0.375 -3.453125 L 0.921875 -3.453125 L 0.890625 -2.78125 L 0.890625 -1.78125 L 1.609375 -2.78125 L 2.015625 -3.453125 L 2.71875 -3.453125 L 2.171875 -2.78125 L 1.515625 -1.890625 L 2.359375 -0.6875 L 2.90625 0 L 2.1875 0 L 1.78125 -0.6875 L 1.21875 -1.5 L 0.890625 -1.21875 L 0.890625 -0.6875 L 0.921875 0 L 0.375 0 Z M 0.421875 -0.6875 "/></g></g></g><g fill="#000000" fill-opacity="1"><g transform="translate(120.848164, 116.115859)"><g><path d="M 1.421875 0.078125 C 1.023438 0.078125 0.734375 -0.0390625 0.546875 -0.28125 C 0.367188 -0.53125 0.28125 -0.898438 0.28125 -1.390625 C 0.28125 -1.878906 0.367188 -2.242188 0.546875 -2.484375 C 0.734375 -2.722656 1.023438 -2.84375 1.421875 -2.84375 C 1.828125 -2.84375 2.117188 -2.722656 2.296875 -2.484375 C 2.484375 -2.242188 2.578125 -1.878906 2.578125 -1.390625 C 2.578125 -0.898438 2.484375 -0.53125 2.296875 -0.28125 C 2.117188 -0.0390625 1.828125 0.078125 1.421875 0.078125 Z M 1.421875 -0.375 C 1.597656 -0.375 1.734375 -0.40625 1.828125 -0.46875 C 1.929688 -0.53125 2.003906 -0.628906 2.046875 -0.765625 C 2.085938 -0.910156 2.109375 -1.113281 2.109375 -1.375 C 2.109375 -1.644531 2.085938 -1.847656 2.046875 -1.984375 C 2.003906 -2.128906 1.929688 -2.234375 1.828125 -2.296875 C 1.734375 -2.359375 1.597656 -2.390625 1.421875 -2.390625 C 1.253906 -2.390625 1.117188 -2.359375 1.015625 -2.296875 C 0.921875 -2.234375 0.851562 -2.128906 0.8125 -1.984375 C 0.769531 -1.847656 0.75 -1.644531 0.75 -1.375 C 0.75 -1.113281 0.769531 -0.910156 0.8125 -0.765625 C 0.851562 -0.628906 0.921875 -0.53125 1.015625 -0.46875 C 1.117188 -0.40625 1.253906 -0.375 1.421875 -0.375 Z M 1.421875 -0.375 "/></g></g></g><g fill="#000000" fill-opacity="1"><g transform="translate(123.700523, 116.115859)"><g><path d="M 1.5 -2.796875 C 1.71875 -2.796875 1.867188 -2.773438 1.953125 -2.734375 L 1.875 -2.328125 L 1.828125 -2.28125 C 1.785156 -2.3125 1.722656 -2.335938 1.640625 -2.359375 C 1.554688 -2.378906 1.472656 -2.390625 1.390625 -2.390625 C 1.160156 -2.390625 0.984375 -2.296875 0.859375 -2.109375 L 0.859375 -0.6875 L 0.890625 0 L 0.359375 0 L 0.390625 -0.6875 L 0.390625 -2.09375 L 0.359375 -2.765625 L 0.765625 -2.765625 L 0.84375 -2.453125 C 0.914062 -2.566406 1.007812 -2.648438 1.125 -2.703125 C 1.238281 -2.765625 1.363281 -2.796875 1.5 -2.796875 Z M 1.5 -2.796875 "/></g></g></g><g fill="#000000" fill-opacity="1"><g transform="translate(125.797167, 116.115859)"><g><path d="M 1.421875 0.0625 C 1.015625 0.0625 0.722656 -0.0546875 0.546875 -0.296875 C 0.367188 -0.546875 0.28125 -0.910156 0.28125 -1.390625 C 0.28125 -1.859375 0.375 -2.21875 0.5625 -2.46875 C 0.75 -2.71875 1.035156 -2.84375 1.421875 -2.84375 C 1.785156 -2.84375 2.054688 -2.742188 2.234375 -2.546875 C 2.410156 -2.359375 2.515625 -2.050781 2.546875 -1.625 L 2.421875 -1.171875 L 0.765625 -1.171875 C 0.773438 -0.984375 0.800781 -0.832031 0.84375 -0.71875 C 0.894531 -0.601562 0.972656 -0.519531 1.078125 -0.46875 C 1.179688 -0.414062 1.320312 -0.390625 1.5 -0.390625 C 1.6875 -0.390625 1.851562 -0.410156 2 -0.453125 C 2.15625 -0.492188 2.285156 -0.550781 2.390625 -0.625 L 2.46875 -0.578125 L 2.359375 -0.1875 C 2.242188 -0.101562 2.113281 -0.0390625 1.96875 0 C 1.832031 0.0390625 1.648438 0.0625 1.421875 0.0625 Z M 2.0625 -1.5625 C 2.0625 -1.851562 2.015625 -2.0625 1.921875 -2.1875 C 1.828125 -2.320312 1.664062 -2.390625 1.4375 -2.390625 C 1.269531 -2.390625 1.140625 -2.359375 1.046875 -2.296875 C 0.953125 -2.242188 0.878906 -2.15625 0.828125 -2.03125 C 0.785156 -1.914062 0.765625 -1.757812 0.765625 -1.5625 Z M 2.0625 -1.5625 "/></g></g></g><g fill="#000000" fill-opacity="1"><g transform="translate(128.571188, 116.115859)"><g><path d="M 0.25 -0.765625 C 0.25 -0.953125 0.289062 -1.113281 0.375 -1.25 C 0.457031 -1.394531 0.566406 -1.503906 0.703125 -1.578125 C 0.847656 -1.660156 1.007812 -1.703125 1.1875 -1.703125 C 1.320312 -1.703125 1.457031 -1.6875 1.59375 -1.65625 C 1.726562 -1.632812 1.835938 -1.601562 1.921875 -1.5625 L 1.921875 -1.828125 C 1.921875 -2.015625 1.867188 -2.148438 1.765625 -2.234375 C 1.671875 -2.328125 1.519531 -2.375 1.3125 -2.375 C 1.125 -2.375 0.953125 -2.335938 0.796875 -2.265625 C 0.648438 -2.203125 0.535156 -2.109375 0.453125 -1.984375 L 0.40625 -1.984375 L 0.46875 -2.515625 C 0.570312 -2.617188 0.703125 -2.695312 0.859375 -2.75 C 1.023438 -2.800781 1.195312 -2.828125 1.375 -2.828125 C 1.695312 -2.828125 1.945312 -2.75 2.125 -2.59375 C 2.300781 -2.4375 2.390625 -2.21875 2.390625 -1.9375 L 2.390625 -0.6875 L 2.421875 0 L 1.9375 0 L 1.921875 -0.28125 C 1.867188 -0.1875 1.765625 -0.101562 1.609375 -0.03125 C 1.453125 0.0390625 1.296875 0.078125 1.140625 0.078125 C 0.859375 0.078125 0.640625 0.00390625 0.484375 -0.140625 C 0.328125 -0.296875 0.25 -0.503906 0.25 -0.765625 Z M 0.734375 -0.8125 C 0.734375 -0.644531 0.765625 -0.523438 0.828125 -0.453125 C 0.898438 -0.378906 1.03125 -0.34375 1.21875 -0.34375 C 1.332031 -0.34375 1.460938 -0.367188 1.609375 -0.421875 C 1.753906 -0.472656 1.859375 -0.535156 1.921875 -0.609375 L 1.921875 -1.125 C 1.847656 -1.175781 1.742188 -1.21875 1.609375 -1.25 C 1.484375 -1.28125 1.351562 -1.296875 1.21875 -1.296875 C 1.039062 -1.296875 0.914062 -1.253906 0.84375 -1.171875 C 0.769531 -1.085938 0.734375 -0.96875 0.734375 -0.8125 Z M 0.734375 -0.8125 "/></g></g></g><g fill="#000000" fill-opacity="1"><g transform="translate(131.317564, 116.115859)"><g><path d="M 1.9375 -0.6875 L 1.9375 -1.90625 C 1.9375 -2.21875 1.796875 -2.375 1.515625 -2.375 C 1.398438 -2.375 1.273438 -2.34375 1.140625 -2.28125 C 1.015625 -2.21875 0.921875 -2.128906 0.859375 -2.015625 L 0.859375 -0.6875 L 0.890625 0 L 0.359375 0 L 0.390625 -0.6875 L 0.390625 -2.09375 L 0.359375 -2.765625 L 0.765625 -2.765625 L 0.859375 -2.390625 C 0.941406 -2.515625 1.054688 -2.613281 1.203125 -2.6875 C 1.359375 -2.757812 1.523438 -2.796875 1.703125 -2.796875 C 1.921875 -2.796875 2.085938 -2.726562 2.203125 -2.59375 C 2.328125 -2.457031 2.390625 -2.265625 2.390625 -2.015625 L 2.390625 -0.6875 L 2.421875 0 L 1.90625 0 Z M 1.9375 -0.6875 "/></g></g></g></svg>